<svg xmlns="http://www.w3.org/2000/svg" viewBox="0 0 71.5 58.91"><defs><style>.cls-1{fill:#152022;}</style></defs><g id="Layer_2" data-name="Layer 2"><g id="Object"><g id="Group_35" data-name="Group 35"><path id="Path_10" data-name="Path 10" class="cls-1" d="M60.7,12.43,65,14.87l-1.62,3.69c-3.75-1-7.36-4.95-11,0C57.56,30.17,56.26,41,47.2,51.26l-2.69-3.8C51,39.77,52.7,31,48.36,21.13c-2.15.52-2.24,1.45-1.65,3.17C51.21,37.38,43.32,50,29.64,51.68c-11.54,1.44-22.93-8.89-22-20.15h4.22c.87,8.1,4.93,13.62,13,15.26,6.27,1.29,11.65-.88,15.52-6,3.56-4.76,3.94-10,1.76-15.55-2.5.68-3.17,1.73-2.69,4.36,1.43,7.87-5,14.39-13.12,13.53-.18-2.31-.61-4.31,3-4.66,4-.39,6.1-4.21,5.19-8.63a34.67,34.67,0,0,1-5.15,3.13c-.93.37-2.26-.26-3.41-.44.34-1,.38-2.4,1.08-3A40.41,40.41,0,0,1,32,26c-3-2.28-5.76-2.34-8.51-.36-3.07,2.2-3.63,5.17-1.85,10.27l-3.3,2.43a11.54,11.54,0,0,1,.94-15.27c4.51-4.59,10.84-4.62,17.17,0l2.71-1.73C35,14.61,25.28,14.1,16.35,20.28l-2.75-3c5.41-7,19.43-8.92,28-.61,1.9,1.84,1.91,1.83,3.79.51C40.77,10,29.59,6.56,20.52,9.58a23,23,0,0,0-15.76,24C5.57,44.78,13.58,52.29,27.5,54.7v4C18.3,60.17,6.37,52.38,2.21,42.29A27.68,27.68,0,0,1,11.27,9.17C22.76.63,35.38,2.28,50.38,14.69c1.06-1.37,2.68-2.61,3-4.14.4-1.75-.33-3.75-.6-5.94L57,4.11l.87,4.58c1.65-.54,1.65-.54,1.56-8.21L63.68,0c-.63,5.81,1.77,9.45,7.82,10.33L69.81,14.2C66.73,14.36,64.54,10.89,60.7,12.43Z"/></g></g></g></svg>