<svg xmlns="http://www.w3.org/2000/svg" viewBox="0 0 61.63 58.5"><defs><style>.cls-1{fill:#152022;}</style></defs><g id="Layer_2" data-name="Layer 2"><g id="Object"><g id="Group_37" data-name="Group 37"><path id="Path_11" data-name="Path 11" class="cls-1" d="M30.83,58.5,0,14C4,9.57,8,5.14,12.11.92c.75-.76,2.42-.84,3.67-.85C25.86,0,35.94-.06,46,.12a7.58,7.58,0,0,1,4.71,2.07C54.48,5.91,57.94,9.93,61.63,14ZM6.22,16.08,23.43,41Q20.73,29.33,16.89,18a3.14,3.14,0,0,0-2.09-1.85c-2.57-.23-5.17-.08-8.58-.08Zm49.2,0c-3.41,0-5.91-.1-8.4.06a2.71,2.71,0,0,0-2,1.32c-2.51,7.59-4.88,15.22-7.29,22.84l.74.34,17-24.56Zm-35,.18,7.67,24.19.57-.23v-24Zm20.69.08h-8V39.83l.57.05ZM7.71,11.89c9.79,1,12.26-.21,16-7.54-7.41-2.45-12.13,1.21-16,7.54Zm30-7.49c5.4,7.94,8,9.09,16,7.21-3.6-6-8.33-9.62-16-7.21Zm1,7.58c-2.42-2.75-4.3-5.09-6.45-7.15a3,3,0,0,0-2.9.07C27.2,7,25.36,9.3,23,12Z"/></g></g></g></svg>