<svg xmlns="http://www.w3.org/2000/svg" viewBox="0 0 82.5 55.4"><defs><style>.cls-1{fill:#152022;}</style></defs><g id="Layer_2" data-name="Layer 2"><g id="Object"><g id="Group_33" data-name="Group 33"><g id="Group_32" data-name="Group 32"><path id="Path_8" data-name="Path 8" class="cls-1" d="M78.27,26.84l4.23,1.7a47.79,47.79,0,0,1-14.19,17.7c-9.92,7.49-21.11,10.89-33.39,8.29C17.58,50.86,8.56,31.31,16.47,15.43c.48-1,1-1.92,1.78-3.52-6.54,4.47-10.53,10.19-14,16.58L0,26.76C7.39,12.76,18,3.46,33.6.68c8.7-1.54,17-.68,24.23,4.87,11.11,8.5,14.25,22.51,7.93,35l-1.41,2.78C70.84,38.73,74.91,33.2,78.27,26.84Zm-37,23.79c12.77,0,23.19-10.36,23.09-22.86A23.06,23.06,0,1,0,41.1,50.63Z"/><path id="Path_9" data-name="Path 9" class="cls-1" d="M43.24,13.25c-1,2.78-.67,5.08,2,6.39s4.59-.24,6.11-2.34c5.18,4.38,6.18,12.09,2.42,18.2A14.73,14.73,0,0,1,27,23.83,14.52,14.52,0,0,1,43.24,13.25Z"/></g></g></g></g></svg>